<svg width="60" height="60" viewBox="0 0 60 60" fill="none" xmlns="http://www.w3.org/2000/svg">
<g clip-path="url(#clip0_206_4645)">
<mask id="mask0_206_4645" style="mask-type:luminance" maskUnits="userSpaceOnUse" x="0" y="0" width="60" height="60">
<path d="M60 0H0V60H60V0Z" fill="white"/>
</mask>
<g mask="url(#mask0_206_4645)">
<path d="M59.8391 60.0416C39.8935 60.0416 19.9699 60.0416 0.0462695 60.0416C0.0446808 60.0362 0.0416997 60.0308 0.0416997 60.0255C0.0415028 40.0326 0.0415039 20.0397 0.0415039 0.0441895C20.0395 0.0441895 40.0376 0.0441895 60.0386 0.0441895C60.0386 20.0394 60.0386 40.0372 60.0386 60.0416C59.9814 60.0416 59.9212 60.0416 59.8391 60.0416ZM49.5227 39.252C49.4269 39.1427 49.3364 39.0284 49.2348 38.925C48.1081 37.7795 46.6895 37.5407 45.1791 37.6771C43.8691 37.7954 42.7471 38.372 41.7771 39.2519C41.7247 39.2994 41.6675 39.3416 41.592 39.403C41.592 39.2804 41.5969 39.191 41.5912 39.1022C41.563 38.6669 41.3585 38.337 40.9713 38.1386C40.5919 37.9443 40.2039 37.9628 39.846 38.1915C39.448 38.4458 39.3121 38.8366 39.3126 39.296C39.3154 42.7372 39.3141 46.1784 39.3141 49.6196C39.3141 49.8343 39.3098 50.0491 39.3151 50.2636C39.3283 50.816 39.6212 51.2536 40.066 51.3937C40.8463 51.6393 41.5907 51.0983 41.5918 50.2753C41.5949 47.9142 41.5943 45.5531 41.592 43.192C41.5914 42.527 41.7595 41.9173 42.1837 41.3982C43.1719 40.1886 44.4517 39.6777 45.9997 39.854C46.7537 39.94 47.3629 40.2899 47.7809 40.9361C48.173 41.5425 48.3073 42.227 48.3127 42.9319C48.3275 44.8773 48.3218 46.823 48.3239 48.7685C48.3245 49.3016 48.3157 49.835 48.326 50.3679C48.3423 51.2016 49.2384 51.7176 49.9722 51.3215C50.4388 51.0697 50.6046 50.6578 50.604 50.1492C50.6011 47.9404 50.6076 45.7316 50.5992 43.5229C50.5972 42.9984 50.5795 42.4706 50.5186 41.9502C50.4056 40.9852 50.1377 40.068 49.5227 39.252ZM35.1598 38.0187C35.0227 38.0285 34.88 38.0171 34.7496 38.0517C34.2061 38.1963 33.9066 38.6283 33.9062 39.2558C33.9049 41.5062 33.9095 43.7567 33.9019 46.0071C33.9007 46.3792 33.8812 46.757 33.8155 47.1222C33.6422 48.0862 33.1253 48.8083 32.1978 49.1741C31.2941 49.5305 30.3637 49.5428 29.4281 49.2889C28.7184 49.0963 28.1742 48.689 27.8189 48.0421C27.5641 47.5783 27.4401 47.0726 27.4309 46.5496C27.4123 45.4905 27.4186 44.4309 27.4174 43.3715C27.4159 42.0005 27.4192 40.6294 27.416 39.2584C27.4145 38.5832 26.966 38.0529 26.3793 38.0186C25.6525 37.9761 25.1401 38.471 25.1393 39.2288C25.1368 41.5415 25.1338 43.8542 25.1409 46.167C25.1435 46.9938 25.2323 47.8093 25.5471 48.5876C26.1442 50.0642 27.2586 50.9555 28.7537 51.3893C29.6947 51.6623 30.6641 51.6788 31.6353 51.5646C32.3857 51.4763 33.103 51.2715 33.7565 50.8917C35.2998 49.9949 36.0849 48.6003 36.1347 46.859C36.2077 44.306 36.1779 41.7498 36.1807 39.195C36.1814 38.5538 35.8044 38.1285 35.1598 38.0187Z" fill="#ECDC5A"/>
<path d="M49.5308 39.2643C50.1377 40.0679 50.4057 40.9851 50.5186 41.9501C50.5795 42.4706 50.5972 42.9983 50.5992 43.5229C50.6076 45.7316 50.6012 47.9404 50.6039 50.1491C50.6046 50.6578 50.4389 51.0696 49.9721 51.3215C49.2384 51.7175 48.3423 51.2015 48.3261 50.3679C48.3156 49.8349 48.3245 49.3016 48.3239 48.7684C48.3218 46.8229 48.3275 44.8773 48.3127 42.9318C48.3074 42.227 48.1731 41.5425 47.7809 40.936C47.363 40.2898 46.7537 39.9399 45.9997 39.8541C44.4517 39.6777 43.1719 40.1885 42.1836 41.3981C41.7596 41.9173 41.5913 42.527 41.592 43.192C41.5943 45.553 41.5949 47.9141 41.5918 50.2752C41.5907 51.0982 40.8464 51.6393 40.0661 51.3936C39.6212 51.2536 39.3284 50.816 39.315 50.2635C39.3099 50.049 39.3142 49.8343 39.3142 49.6196C39.3142 46.1784 39.3155 42.7371 39.3125 39.2959C39.3122 38.8365 39.4481 38.4457 39.8459 38.1915C40.204 37.9628 40.5919 37.9443 40.9713 38.1386C41.3585 38.3369 41.563 38.6668 41.5912 39.1021C41.5969 39.1909 41.592 39.2804 41.592 39.403C41.6675 39.3416 41.7247 39.2993 41.7771 39.2518C42.747 38.372 43.8692 37.7954 45.1791 37.6771C46.6895 37.5406 48.1082 37.7794 49.2347 38.925C49.3364 39.0284 49.4269 39.1427 49.5308 39.2643Z" fill="#111827"/>
<path d="M35.1783 38.0197C35.8044 38.1285 36.1814 38.5539 36.1806 39.195C36.1779 41.7499 36.2077 44.306 36.1347 46.859C36.0849 48.6004 35.2998 49.9949 33.7565 50.8917C33.103 51.2715 32.3857 51.4763 31.6353 51.5646C30.6641 51.6789 29.6947 51.6623 28.7537 51.3893C27.2586 50.9555 26.1442 50.0642 25.5471 48.5877C25.2323 47.8093 25.1435 46.9939 25.1409 46.167C25.1338 43.8543 25.1368 41.5415 25.1393 39.2288C25.1401 38.4711 25.6525 37.9761 26.3793 38.0187C26.966 38.053 27.4145 38.5833 27.416 39.2584C27.4192 40.6294 27.4158 42.0005 27.4174 43.3715C27.4186 44.4309 27.4122 45.4905 27.4309 46.5496C27.4401 47.0726 27.5641 47.5784 27.8189 48.0421C28.1742 48.6891 28.7184 49.0963 29.4281 49.289C30.3637 49.5429 31.2941 49.5306 32.1978 49.1741C33.1253 48.8084 33.6422 48.0862 33.8155 47.1223C33.8812 46.757 33.9006 46.3793 33.9019 46.0071C33.9095 43.7567 33.9049 41.5063 33.9062 39.2559C33.9066 38.6284 34.2061 38.1963 34.7496 38.0518C34.88 38.0171 35.0227 38.0286 35.1783 38.0197Z" fill="#111827"/>
</g>
</g>
<defs>
<clipPath id="clip0_206_4645">
<rect width="60" height="60" fill="white"/>
</clipPath>
</defs>
</svg>
